<svg xmlns="http://www.w3.org/2000/svg" x="0px" y="0px"
width="200" height="200"
viewBox="0 0 172 172"
style=" fill:#000000;">
<g fill="none" 
fill-rule="nonzero" 
stroke="none" 
stroke-width="1" 
stroke-linecap="butt" 
stroke-linejoin="miter" 
stroke-miterlimit="10" 
stroke-dasharray="" 
stroke-dashoffset="0" 
font-family="none" 
font-weight="none" 
font-size="none" 
text-anchor="none" 
style="mix-blend-mode: normal">
<path d="M0,172v-172h172v172z" fill="#585252"></path>
<g id="original-icon" fill="#ffffff">
<path d="M30.96,10.32c-5.6587,0 -10.32,4.6613 -10.32,10.32v130.72c0,5.6587 4.6613,10.32 10.32,10.32h110.08c5.6587,0 10.32,-4.6613 10.32,-10.32v-130.72c0,-5.6587 -4.6613,-10.32 -10.32,-10.32zM30.96,17.2h110.08c1.9437,0 3.44,1.4963 3.44,3.44v130.72c0,1.9437 -1.4963,3.44 -3.44,3.44h-110.08c-1.9437,0 -3.44,-1.4963 -3.44,-3.44v-130.72c0,-1.9437 1.4963,-3.44 3.44,-3.44zM106.64,27.52c-3.79972,0 -6.88,3.08028 -6.88,6.88c0,3.79972 3.08028,6.88 6.88,6.88c3.79972,0 6.88,-3.08028 6.88,-6.88c0,-3.79972 -3.08028,-6.88 -6.88,-6.88zM127.28,27.52c-3.79972,0 -6.88,3.08028 -6.88,6.88c0,3.79972 3.08028,6.88 6.88,6.88c3.79972,0 6.88,-3.08028 6.88,-6.88c0,-3.79972 -3.08028,-6.88 -6.88,-6.88zM86,51.6c-22.05848,0 -40.08306,17.41723 -41.1725,39.21063c-0.10794,0.43268 -0.13076,0.88221 -0.06719,1.32359c-0.00452,0.25078 -0.04031,0.49394 -0.04031,0.74578c0,22.7572 18.5228,41.28 41.28,41.28c22.75094,0 41.28,-18.52204 41.28,-41.28c0,-0.24961 -0.03586,-0.49054 -0.04031,-0.73906c0.06803,-0.45236 0.04519,-0.91375 -0.06719,-1.35719c-1.08604,-21.33957 -18.49748,-38.26985 -39.94969,-38.93515c-0.38904,-0.15671 -0.80346,-0.24096 -1.22281,-0.2486zM86,58.48c16.26482,0 29.81856,11.23166 33.42578,26.37781c-3.40363,-1.55884 -6.63734,-2.23498 -9.27188,-2.2911c-4.91096,-0.10323 -8.71759,2.00938 -12.30203,3.70875c-3.58444,1.69937 -7.01872,3.16453 -11.85187,3.16453c-4.83315,0 -8.26743,-1.46516 -11.85187,-3.16453c-3.58269,-1.69854 -7.38784,-3.80976 -12.29531,-3.70875h-0.00672c-2.63792,0.05436 -5.86915,0.73153 -9.27188,2.2911c3.60577,-15.14647 17.15455,-26.37781 33.42578,-26.37781zM61.98719,89.44c0.00224,0 0.00448,0 0.00672,0c2.78088,-0.05845 5.45161,1.27099 9.20469,3.05031c3.75292,1.77933 8.51647,3.82969 14.8014,3.82969c6.28493,0 11.04833,-2.05036 14.8014,-3.82969c3.75308,-1.77933 6.42381,-3.10877 9.20469,-3.05031c2.23709,0.04765 6.32995,1.06149 10.37375,3.91031c-0.2536,18.81748 -15.50738,33.92969 -34.37985,33.92969c-18.87989,0 -34.12637,-15.11148 -34.37985,-33.92969c4.04406,-2.84956 8.13539,-3.86505 10.36703,-3.91031z"></path></g></g>
</svg>