<svg xmlns="http://www.w3.org/2000/svg" x="0px" y="0px"
width="100" height="100"
viewBox="0 0 172 172"
style=" fill:#000000;">
<g fill="none" 
fill-rule="nonzero" stroke="none" stroke-width="1" stroke-linecap="butt" stroke-linejoin="miter" stroke-miterlimit="10" stroke-dasharray="" stroke-dashoffset="0" font-family="none" font-weight="none" font-size="none" text-anchor="none" style="mix-blend-mode: normal"><path d="M0,172v-172h172v172z" fill="#585252"></path><g fill="#ffffff"><g id="surface1"><path d="M54.5025,20.64c-0.7525,0.13438 -1.42437,0.51063 -1.935,1.075l-51.6,55.04c-1.22281,1.29 -1.26312,3.27875 -0.1075,4.6225l24.08,27.52c0.61813,0.73906 1.51844,1.16906 2.4725,1.20938c0.9675,0.04031 1.89469,-0.3225 2.58,-0.99438l7.8475,-7.8475v50.095c0,1.89469 1.54531,3.44 3.44,3.44h89.44c1.89469,0 3.44,-1.54531 3.44,-3.44v-50.095l4.4075,4.4075c0.645,0.67188 1.54531,1.04813 2.4725,1.04813c0.92719,0 1.8275,-0.37625 2.4725,-1.04813l27.52,-27.52c0.67188,-0.645 1.04813,-1.54531 1.04813,-2.4725c0,-0.92719 -0.37625,-1.8275 -1.04813,-2.4725l-51.6,-51.6c-1.04812,-1.04812 -2.64719,-1.30344 -3.9775,-0.645c0,0 -13.89437,6.5575 -29.455,6.5575c-15.56062,0 -29.455,-6.5575 -29.455,-6.5575c-0.63156,-0.30906 -1.34375,-0.43 -2.0425,-0.3225zM56.0075,28.0575c3.14438,1.3975 14.74094,6.3425 29.9925,6.3425c15.25156,0 26.84813,-4.945 29.9925,-6.3425l47.6225,47.6225l-22.575,22.575l-7.8475,-7.8475c-0.98094,-1.02125 -2.49937,-1.33031 -3.80281,-0.77937c-1.30344,0.5375 -2.13656,1.84094 -2.10969,3.25187v55.04h-82.56v-55.04c0.02688,-1.41094 -0.80625,-2.71437 -2.10969,-3.25187c-1.30344,-0.55094 -2.82188,-0.24188 -3.80281,0.77937l-11.18,11.18l-19.565,-22.36z"></path></g></g></g>
</svg>